<svg xmlns="http://www.w3.org/2000/svg" width="96" height="96" viewBox="0 0 96 96" role="img" aria-label="對手面具頭像">
  <circle cx="48" cy="48" r="45" fill="#402430" stroke="#edaa86" stroke-width="4"/>
  <path d="M17 82Q24 62 48 61Q72 62 79 82" fill="#743d50"/>
  <path d="M29 35L22 17L40 27H56L74 17L67 35L65 57L48 72L31 57Z" fill="#b96659" stroke="#2b2230" stroke-width="3"/>
  <path d="M33 36L46 42L40 48L31 44ZM63 36L50 42L56 48L65 44Z" fill="#ffe3a1"/>
  <path d="M48 33V59L39 55M42 64H54" fill="none" stroke="#f0b991" stroke-width="3" stroke-linecap="round"/>
  <path d="M31 70L48 78L65 70L61 88H35Z" fill="#cd8b69"/>
</svg>
